<?xml version="1.0" ?><!DOCTYPE svg  PUBLIC '-//W3C//DTD SVG 1.1//EN'  'http://www.w3.org/Graphics/SVG/1.1/DTD/svg11.dtd'><svg enable-background="new 0 0 96 96" height="96px" id="zoom_in" version="1.1" viewBox="0 0 96 96" width="96px" xml:space="preserve" xmlns="http://www.w3.org/2000/svg" xmlns:xlink="http://www.w3.org/1999/xlink"><path d="M90.829,85.171L68.121,62.464C73.047,56.307,76,48.5,76,40C76,20.118,59.882,4,40,4C20.118,4,4,20.118,4,40s16.118,36,36,36  c8.5,0,16.306-2.953,22.464-7.879l22.708,22.708c1.562,1.562,4.095,1.562,5.657,0C92.391,89.267,92.391,86.733,90.829,85.171z   M40,68c-15.464,0-28-12.536-28-28s12.536-28,28-28c15.464,0,28,12.536,28,28S55.464,68,40,68z"/><path d="M52,36h-8v-8c0-2.209-1.791-4-4-4s-4,1.791-4,4v8h-8c-2.209,0-4,1.791-4,4s1.791,4,4,4h8v8c0,2.209,1.791,4,4,4s4-1.791,4-4  v-8h8c2.209,0,4-1.791,4-4S54.209,36,52,36z"/></svg>