<?xml version="1.0" ?><!DOCTYPE svg  PUBLIC '-//W3C//DTD SVG 1.1//EN'  'http://www.w3.org/Graphics/SVG/1.1/DTD/svg11.dtd'><svg enable-background="new 0 0 96 96" height="96px" id="eye" version="1.1" viewBox="0 0 96 96" width="96px" xml:space="preserve" xmlns="http://www.w3.org/2000/svg" xmlns:xlink="http://www.w3.org/1999/xlink"><path d="M48,20c21.15,0,34.502,19.998,38.998,28C82.494,56.016,69.145,76,48,76C26.853,76,13.503,56.118,9.003,48.149  C13.5,40.101,26.853,20,48,20 M48,12C16,12,0,48.166,0,48.166S16,84,48,84s48-36,48-36S80,12,48,12L48,12z"/><path d="M48,40c4.411,0,8,3.589,8,8s-3.589,8-8,8s-8-3.589-8-8S43.589,40,48,40 M48,32c-8.836,0-16,7.164-16,16  c0,8.837,7.164,16,16,16c8.837,0,16-7.163,16-16C64,39.164,56.837,32,48,32L48,32z"/></svg>